<svg width="16" height="16" viewBox="0 0 16 16" fill="none" xmlns="http://www.w3.org/2000/svg">
<path d="M7.9996 2.12405e-07C4.07639 -0.000503723 0.732035 2.84474 0.103901 6.71733C-0.524233 10.5899 1.74933 14.3464 5.47156 15.586C5.87245 15.6581 6.01597 15.412 6.01597 15.2003C6.01597 15.0103 6.00956 14.5068 6.00715 13.8373C3.78219 14.3183 3.31234 12.7645 3.31234 12.7645C3.16587 12.281 2.85097 11.8659 2.42476 11.5947C1.70315 11.0984 2.48008 11.1096 2.48008 11.1096C2.99377 11.18 3.44588 11.4844 3.70441 11.9338C3.92325 12.3317 4.29193 12.6257 4.72854 12.7505C5.16515 12.8754 5.63353 12.8206 6.0296 12.5985C6.06682 12.1928 6.24732 11.8136 6.53874 11.5289C4.76358 11.3277 2.89701 10.6413 2.89701 7.5761C2.88716 6.78329 3.18157 6.01686 3.71965 5.43452C3.47619 4.74443 3.50486 3.9875 3.79983 3.3178C3.79983 3.3178 4.47093 3.10212 5.99833 4.13643C7.30833 3.77723 8.69086 3.77723 10.0009 4.13643C11.5291 3.10132 12.1994 3.3178 12.1994 3.3178C12.4957 3.98718 12.5244 4.74464 12.2795 5.43452C12.8196 6.01681 13.1138 6.78525 13.1006 7.57931C13.1006 10.6526 11.2324 11.3277 9.45084 11.5257C9.83515 11.9186 10.0322 12.4577 9.99204 13.0058C9.99204 14.0754 9.98242 14.9381 9.98242 15.2003C9.98242 15.4144 10.1251 15.6629 10.5332 15.5844C14.2539 14.3427 16.5251 10.586 15.8956 6.71443C15.2662 2.84286 11.922 -0.00089734 7.9996 2.12405e-07Z" fill="#2F80ED"/>
</svg>
